<?xml version="1.0" encoding="UTF-8"?>
<svg version="1.1" xmlns="http://www.w3.org/2000/svg" width="181" height="134">
<path d="M0 0 C59.73 0 119.46 0 181 0 C181 44.22 181 88.44 181 134 C121.27 134 61.54 134 0 134 C0 89.78 0 45.56 0 0 Z " fill="#FBF9F8" transform="translate(0,0)"/>
<path d="M0 0 C0.64001953 0.26828613 1.28003906 0.53657227 1.93945312 0.81298828 C14.36164731 6.17945324 25.27841345 13.35573049 31 26 C33.02868472 32.65307783 32.48826766 38.46265096 29.44921875 44.63671875 C24.31467094 53.00976841 17.64240957 58.55876175 9 63 C8.1853125 63.43957031 7.370625 63.87914063 6.53125 64.33203125 C-24.25492638 80.45580401 -61.73648337 80.61635613 -94.5 70.75 C-109.85228021 65.51554271 -124.32995968 58.35975428 -133 44 C-135.89444309 37.52196071 -135.80543982 31.64218443 -133.5 25.0625 C-127.40326687 11.28683657 -114.19331501 4.22234806 -100.72607422 -0.98413086 C-69.40178486 -12.52149696 -30.98907903 -13.03958039 0 0 Z " fill="#F8F8F8" transform="translate(142,34)"/>
<path d="M0 0 C2.56063934 3.84538919 2.25509461 7.82471848 2.1953125 12.265625 C2.1924826 13.05902283 2.18965271 13.85242065 2.18673706 14.66986084 C2.17556779 17.19672917 2.15046944 19.72323932 2.125 22.25 C2.11496598 23.9661407 2.10584087 25.68228698 2.09765625 27.3984375 C2.07563914 31.59909574 2.04113187 35.7994872 2 40 C5.3 40 8.6 40 12 40 C12 35.38 12 30.76 12 26 C18 26 18 26 19.69091797 27.16162109 C20.33504639 27.95947021 20.33504639 27.95947021 20.9921875 28.7734375 C21.46914063 29.3509375 21.94609375 29.9284375 22.4375 30.5234375 C22.911875 31.13445312 23.38625 31.74546875 23.875 32.375 C24.37257812 32.97828125 24.87015625 33.5815625 25.3828125 34.203125 C29 38.67492273 29 38.67492273 29 41 C37.25 41 45.5 41 54 41 C54 39.68 54 38.36 54 37 C55.875 35.9375 55.875 35.9375 58 35 C58.66 35.33 59.32 35.66 60 36 C60 37.65 60 39.3 60 41 C63.3 41 66.6 41 70 41 C70.0928125 40.29488281 70.185625 39.58976562 70.28125 38.86328125 C71.13548079 35.46028578 72.58450864 33.11961485 74.5 30.1875 C75.44359375 28.72376953 75.44359375 28.72376953 76.40625 27.23046875 C76.9321875 26.49441406 77.458125 25.75835937 78 25 C78.33 25 78.66 25 79 25 C79 29.95 79 34.9 79 40 C82.3 40 85.6 40 89 40 C89 28.12 89 16.24 89 4 C89.33 4 89.66 4 90 4 C90 15.88 90 27.76 90 40 C99.57 40.33 109.14 40.66 119 41 C119.33 42.98 119.66 44.96 120 47 C120.66 47 121.32 47 122 47 C121.8984375 48.80859375 121.8984375 48.80859375 121 51 C94.6068924 66.20391691 58.05123593 66.10623876 29.25 59.0859375 C26.1183097 58.15998099 23.0661708 57.12265309 20 56 C18.91460937 55.63003906 17.82921875 55.26007813 16.7109375 54.87890625 C5.62275855 50.91884234 -4.0458698 45.73200286 -11 36 C-11.433125 35.40832031 -11.86625 34.81664062 -12.3125 34.20703125 C-16.0948582 28.04756599 -15.94581444 20.98761186 -15 14 C-12.99099074 8.72223386 -9.23172857 4.67492218 -5 1 C-2 0 -2 0 0 0 Z " fill="#FAFBFB" transform="translate(26,46)"/>
<path d="M0 0 C3.465 -0.12375 6.93 -0.2475 10.5 -0.375 C12.11358398 -0.45693604 12.11358398 -0.45693604 13.75976562 -0.54052734 C20.01859576 -0.64792055 23.5833647 0.30412246 28.36132812 4.40771484 C28.90208984 4.93316895 29.44285156 5.45862305 30 6 C30.54591797 6.49838379 31.09183594 6.99676758 31.65429688 7.51025391 C34.65934012 10.83695454 34.39539568 15.1306299 34.33984375 19.37109375 C33.77828908 23.71507414 31.89041709 26.77289697 29 30 C28.3349646 30.76981201 28.3349646 30.76981201 27.65649414 31.55517578 C24.13377266 35.14404421 21.56506801 36.39977983 16.50390625 36.5859375 C14.52247975 36.5520358 12.54170905 36.47465865 10.5625 36.375 C7.076875 36.25125 3.59125 36.1275 0 36 C0 24.12 0 12.24 0 0 Z " fill="#F70403" transform="translate(118,50)"/>
<path d="M0 0 C3.3 0 6.6 0 10 0 C10 1.32 10 2.64 10 4 C10.59425781 4.16628906 11.18851563 4.33257812 11.80078125 4.50390625 C15.1750085 6.79933971 15.92926001 10.22160683 17.1875 13.9375 C17.44724609 14.66646484 17.70699219 15.39542969 17.97460938 16.14648438 C19.017421 19.086297 20.01361366 22.04084099 21 25 C21.66 25 22.32 25 23 25 C23.2475 24.154375 23.495 23.30875 23.75 22.4375 C24.83841014 19.4443721 26.08821921 16.85826441 27.7421875 14.14453125 C28.7489985 12.42794977 29.67409585 10.66354628 30.5703125 8.88671875 C31.14523438 7.78972656 31.72015625 6.69273438 32.3125 5.5625 C32.84488281 4.51191406 33.37726563 3.46132813 33.92578125 2.37890625 C34.61027344 1.59386719 35.29476562 0.80882812 36 0 C38.31 0 40.62 0 43 0 C43 11.88 43 23.76 43 36 C40.03 36 37.06 36 34 36 C33.67 31.38 33.34 26.76 33 22 C30.36 26.62 27.72 31.24 25 36 C22.36 36 19.72 36 17 36 C16.2272795 34.16746128 15.45693039 32.33392258 14.6875 30.5 C14.04361328 28.96859375 14.04361328 28.96859375 13.38671875 27.40625 C11.85073513 23.63335501 10.43032634 19.81420357 9 16 C8.67 22.6 8.34 29.2 8 36 C5.36 36 2.72 36 0 36 C0 24.12 0 12.24 0 0 Z " fill="#0D247D" transform="translate(71,50)"/>
<path d="M0 0 C0.64001953 0.26828613 1.28003906 0.53657227 1.93945312 0.81298828 C14.36164731 6.17945324 25.27841345 13.35573049 31 26 C33.02868472 32.65307783 32.48826766 38.46265096 29.44921875 44.63671875 C24.31467094 53.00976841 17.64240957 58.55876175 9 63 C8.1853125 63.43957031 7.370625 63.87914063 6.53125 64.33203125 C-24.25492638 80.45580401 -61.73648337 80.61635613 -94.5 70.75 C-109.85228021 65.51554271 -124.32995968 58.35975428 -133 44 C-135.89444309 37.52196071 -135.80543982 31.64218443 -133.5 25.0625 C-127.40326687 11.28683657 -114.19331501 4.22234806 -100.72607422 -0.98413086 C-69.40178486 -12.52149696 -30.98907903 -13.03958039 0 0 Z M-85.97607422 -3.54248047 C-87.88885317 -3.02979111 -89.82138366 -2.59251042 -91.75390625 -2.16015625 C-105.72150587 1.22640142 -119.06450348 8.5531012 -128 20 C-131.90330702 26.51728638 -131.97122592 32.5833657 -131 40 C-127.01411164 51.62185763 -117.65794961 58.67841628 -107 64 C-75.10053275 77.30111119 -36.52633917 80.184813 -4 67 C9.00930846 61.42501611 22.41461123 54.88613578 28 41 C29.38916117 33.48407599 29.07097242 26.84464115 25.25 20.125 C15.52758049 6.95268969 0.28756427 1.0433916 -15 -3 C-15.6595166 -3.18481934 -16.3190332 -3.36963867 -16.99853516 -3.56005859 C-38.70139939 -9.47811047 -64.27495913 -9.4203825 -85.97607422 -3.54248047 Z " fill="#383D66" transform="translate(142,34)"/>
<path d="M0 0 C2.97 0 5.94 0 9 0 C9 4.95 9 9.9 9 15 C11.31 15 13.62 15 16 15 C16.23847656 14.44828125 16.47695313 13.8965625 16.72265625 13.328125 C19.46144122 8.33633343 23.40656923 4.31920437 28 1 C31.8290393 0.20047733 35.15878047 0.34275711 39 1 C36.51783325 5.758233 33.11579258 9.11634242 29.3125 12.8125 C28.70599609 13.40998047 28.09949219 14.00746094 27.47460938 14.62304688 C25.98759688 16.08664185 24.49441189 17.54396102 23 19 C26.66671185 24.01600714 30.46956457 28.76130176 34.6796875 33.3359375 C36 35 36 35 36 37 C32.44806242 37.74817409 29.5380003 37.88569696 26 37 C21.66178301 33.38580828 17.54516713 29.09033426 15 24 C13.02 23.67 11.04 23.34 9 23 C9 27.62 9 32.24 9 37 C6.03 37 3.06 37 0 37 C0 24.79 0 12.58 0 0 Z " fill="#182B7C" transform="translate(29,49)"/>
<path d="M0 0 C7.92 0 15.84 0 24 0 C24.66 1.98 25.32 3.96 26 6 C25.01 5.67 24.02 5.34 23 5 C23 3.68 23 2.36 23 1 C19.7 1 16.4 1 13 1 C13 12.88 13 24.76 13 37 C15.64 37 18.28 37 21 37 C21 30.07 21 23.14 21 16 C23.86380115 18.86380115 24.69457282 20.23088631 26.0625 23.875 C26.38347656 24.71804687 26.70445313 25.56109375 27.03515625 26.4296875 C27.51275391 27.70199219 27.51275391 27.70199219 28 29 C28.36996094 29.86882812 28.73992187 30.73765625 29.12109375 31.6328125 C30 34 30 34 30 37 C32.64 37 35.28 37 38 37 C38 37.33 38 37.66 38 38 C33.05 38.495 33.05 38.495 28 39 C27 37 26 35 25 33 C23.515 33.495 23.515 33.495 22 34 C22 35.32 22 36.64 22 38 C13.50375215 38.89073566 5.48881273 38.99418527 -3 38 C-3 37.67 -3 37.34 -3 37 C0.3 37 3.6 37 7 37 C2.53699071 31.1397568 -2.0827555 25.48519371 -7 20 C-2.86596566 15.01795861 1.50475038 10.43340038 6.14453125 5.91796875 C8.06021793 4.12995862 8.06021793 4.12995862 9 2 C6.03 1.67 3.06 1.34 0 1 C0 0.67 0 0.34 0 0 Z " fill="#FBFDFB" transform="translate(58,49)"/>
<path d="M0 0 C11 0 11 0 14.6875 2.4375 C17.37190728 5.72103587 17.75509756 8.72254877 17.4609375 12.8828125 C16.76300378 16.08857586 15.39311322 17.80631288 13 20 C9 22 9 22 0 22 C0 14.74 0 7.48 0 0 Z " fill="#FAFBFB" transform="translate(127,57)"/>
<path d="M0 0 C3.3 0 6.6 0 10 0 C10 0.66 10 1.32 10 2 C8.35 2 6.7 2 5 2 C6.32 2.33 7.64 2.66 9 3 C8.67 13.89 8.34 24.78 8 36 C5.36 36 2.72 36 0 36 C0 24.12 0 12.24 0 0 Z " fill="#09217E" transform="translate(71,50)"/>
<path d="M0 0 C7.26 0 14.52 0 22 0 C22 0.33 22 0.66 22 1 C15.4 1 8.8 1 2 1 C2 11.89 2 22.78 2 34 C8.27 34 14.54 34 21 34 C21 32.68 21 31.36 21 30 C17.04 30 13.08 30 9 30 C9 29.67 9 29.34 9 29 C9.58007812 28.97421875 10.16015625 28.9484375 10.7578125 28.921875 C16.36168771 28.51499297 19.64684174 27.59135557 24 24 C25.74850149 20.50299703 25.54699705 16.81579867 25 13 C23.35801159 9.77367957 23.35801159 9.77367957 20 8 C16.33164732 7.31475996 12.72742028 7.0718067 9 7 C9 6.67 9 6.34 9 6 C11.08304538 5.94581674 13.16649768 5.90712449 15.25 5.875 C16.99023438 5.84019531 16.99023438 5.84019531 18.765625 5.8046875 C21.82786046 5.9896051 23.44202751 6.39176977 26 8 C25.67 8.99 25.34 9.98 25 11 C25.99 11 26.98 11 28 11 C28.05406122 12.93719378 28.09282025 14.87481921 28.125 16.8125 C28.14820313 17.89144531 28.17140625 18.97039062 28.1953125 20.08203125 C28 23 28 23 26 26 C25.34 26 24.68 26 24 26 C24 26.66 24 27.32 24 28 C24.598125 27.814375 25.19625 27.62875 25.8125 27.4375 C28 27 28 27 31 28 C28.4836432 31.68407793 25.98108452 33.95335452 22 36 C14.6983057 37.07008778 7.33863736 36.35155149 0 36 C0 24.12 0 12.24 0 0 Z " fill="#D51C1F" transform="translate(118,50)"/>
<path d="M0 0 C7.92 0 15.84 0 24 0 C24.66 1.98 25.32 3.96 26 6 C25.01 5.67 24.02 5.34 23 5 C23 3.68 23 2.36 23 1 C19.7 1 16.4 1 13 1 C13 12.88 13 24.76 13 37 C15.64 37 18.28 37 21 37 C21 30.07 21 23.14 21 16 C23.86380115 18.86380115 24.69457282 20.23088631 26.0625 23.875 C26.38347656 24.71804687 26.70445313 25.56109375 27.03515625 26.4296875 C27.51275391 27.70199219 27.51275391 27.70199219 28 29 C28.36996094 29.86882812 28.73992187 30.73765625 29.12109375 31.6328125 C30 34 30 34 30 37 C32.64 37 35.28 37 38 37 C38 37.33 38 37.66 38 38 C33.05 38.495 33.05 38.495 28 39 C27 37 26 35 25 33 C23.515 33.495 23.515 33.495 22 34 C22 35.32 22 36.64 22 38 C13.50375215 38.89073566 5.48881273 38.99418527 -3 38 C-3 37.67 -3 37.34 -3 37 C0.3 37 3.6 37 7 37 C6.505 35.515 6.505 35.515 6 34 C6.66 34 7.32 34 8 34 C8 34.66 8 35.32 8 36 C9.32 36 10.64 36 12 36 C11.67 25.11 11.34 14.22 11 3 C8.70370006 1.85185003 6.92301914 1.69230191 4.375 1.4375 C3.55773438 1.35371094 2.74046875 1.26992188 1.8984375 1.18359375 C1.27195312 1.12300781 0.64546875 1.06242187 0 1 C0 0.67 0 0.34 0 0 Z " fill="#A1A7C5" transform="translate(58,49)"/>
<path d="M0 0 C4.95188821 0.44213288 8.91841102 1.26104941 13.56640625 3.109375 C38.46910723 12.22304406 66.10326343 12.12052084 91.76416016 6.38183594 C92.66312012 6.18106445 93.56208008 5.98029297 94.48828125 5.7734375 C95.71285034 5.48218994 95.71285034 5.48218994 96.9621582 5.18505859 C97.634646 5.12398926 98.30713379 5.06291992 99 5 C99.99 5.99 99.99 5.99 101 7 C95.44899665 8.1961367 89.89391594 9.36821454 84.33203125 10.51269531 C82.50906051 10.89362597 80.69094498 11.29781002 78.875 11.7109375 C52.93191702 17.0385349 23.93928177 11.52108562 0 1 C0 0.67 0 0.34 0 0 Z " fill="#393D69" transform="translate(33,98)"/>
<path d="M0 0 C0.66 0 1.32 0 2 0 C2.02687279 1.81242052 2.04633715 3.62495233 2.0625 5.4375 C2.07410156 6.44683594 2.08570313 7.45617187 2.09765625 8.49609375 C2 11 2 11 1 12 C0.92788335 14.55563371 1.00366284 17.09660453 1.0625 19.65234375 C1 22 1 22 0 24 C1.65 24.33 3.3 24.66 5 25 C1.50912907 29.0042343 -0.64951939 30.62671065 -6 31 C-6 30.34 -6 29.68 -6 29 C-6.66 28.67 -7.32 28.34 -8 28 C-8.33 27.34 -8.66 26.68 -9 26 C-17.25 25.67 -25.5 25.34 -34 25 C-34 24.67 -34 24.34 -34 24 C-33.06317383 24.00954712 -33.06317383 24.00954712 -32.10742188 24.01928711 C-29.23710761 24.02805102 -26.36994449 23.98314161 -23.5 23.9375 C-22.51773438 23.94845703 -21.53546875 23.95941406 -20.5234375 23.97070312 C-13.82869446 23.81449245 -10.32063851 22.49923726 -5.53491211 17.77294922 C-0.84533851 12.35610757 -0.39524863 6.89640713 0 0 Z " fill="#F9F9F6" transform="translate(152,62)"/>
<path d="M0 0 C7.53470867 -0.9567884 7.53470867 -0.9567884 11.56640625 1.67578125 C18.73276526 7.96791347 18.73276526 7.96791347 19.203125 13.3046875 C19.27227124 17.09620647 19.22137883 20.30634632 18.0625 23.9375 C14.9372278 27.0627722 11.21024347 27.91433973 7 29 C7 28.34 7 27.68 7 27 C7.66 27 8.32 27 9 27 C9 26.34 9 25.68 9 25 C9.48082031 24.59136719 9.96164063 24.18273437 10.45703125 23.76171875 C12.67438546 21.23000547 12.50936042 19.12589617 12.6875 15.8125 C12.75324219 14.72582031 12.81898438 13.63914062 12.88671875 12.51953125 C12.92410156 11.68808594 12.96148437 10.85664062 13 10 C12.01 10 11.02 10 10 10 C10 9.01 10 8.02 10 7 C9.01 7 8.02 7 7 7 C7 6.34 7 5.68 7 5 C3.04 5 -0.92 5 -5 5 C-5 4.67 -5 4.34 -5 4 C-1.04 3.34 2.92 2.68 7 2 C4.69 1.67 2.38 1.34 0 1 C0 0.67 0 0.34 0 0 Z " fill="#F4060C" transform="translate(133,51)"/>
<path d="M0 0 C1.98 0 3.96 0 6 0 C6 11.88 6 23.76 6 36 C3.36 36 0.72 36 -2 36 C-2 30.06 -2 24.12 -2 18 C-1.67 18 -1.34 18 -1 18 C-1 19.98 -1 21.96 -1 24 C-0.34 24 0.32 24 1 24 C1.33 25.65 1.66 27.3 2 29 C2.66 29 3.32 29 4 29 C3.649375 28.46375 3.29875 27.9275 2.9375 27.375 C1.68072729 24.1911758 2.39446686 22.39098559 3 19 C3.02746994 17.00018866 3.02475058 14.99984685 3 13 C2.95893729 8.87319722 3.10002361 5.04989378 4 1 C2.68 1.33 1.36 1.66 0 2 C0 1.34 0 0.68 0 0 Z " fill="#0A1D68" transform="translate(108,50)"/>
<path d="M0 0 C11 0 11 0 14.6875 2.4375 C17.37190728 5.72103587 17.75509756 8.72254877 17.4609375 12.8828125 C16.76300378 16.08857586 15.39311322 17.80631288 13 20 C9 22 9 22 0 22 C0 14.74 0 7.48 0 0 Z M3 3 C2.83013455 4.56215548 2.66426036 6.1247452 2.5 7.6875 C2.4071875 8.55761719 2.314375 9.42773438 2.21875 10.32421875 C2.00629649 12.92298039 1.82262018 15.39695113 2 18 C3.89755144 20.34973818 3.89755144 20.34973818 7.125 20.125 C8.07375 20.08375 9.0225 20.0425 10 20 C10 19.34 10 18.68 10 18 C11.32 18 12.64 18 14 18 C14.165 16.741875 14.33 15.48375 14.5 14.1875 C14.5928125 13.47980469 14.685625 12.77210937 14.78125 12.04296875 C15.053233 9.84528294 15.053233 9.84528294 15 7 C14.34 7 13.68 7 13 7 C12.67 5.68 12.34 4.36 12 3 C11.01 3.495 11.01 3.495 10 4 C10 4.66 10 5.32 10 6 C9.34 6 8.68 6 8 6 C8 5.01 8 4.02 8 3 C6.35 3 4.7 3 3 3 Z " fill="#FDDDD6" transform="translate(127,57)"/>
<path d="M0 0 C0.99 0.33 1.98 0.66 3 1 C3 8.59 3 16.18 3 24 C6.96 24 10.92 24 15 24 C15 25.32 15 26.64 15 28 C8.73 28 2.46 28 -4 28 C-3.67 26.35 -3.34 24.7 -3 23 C-1.68 22.67 -0.36 22.34 1 22 C0.67 21.34 0.34 20.68 0 20 C-0.08372659 18.47851674 -0.10730027 16.95344222 -0.09765625 15.4296875 C-0.09282227 14.08583984 -0.09282227 14.08583984 -0.08789062 12.71484375 C-0.07951172 11.77769531 -0.07113281 10.84054688 -0.0625 9.875 C-0.05798828 8.93011719 -0.05347656 7.98523437 -0.04882812 7.01171875 C-0.03702357 4.67441613 -0.02055759 2.33723939 0 0 Z " fill="#F30606" transform="translate(124,56)"/>
<path d="M0 0 C2.64 0 5.28 0 8 0 C8 0.66 8 1.32 8 2 C8.99 2.33 9.98 2.66 11 3 C11.2475 4.134375 11.495 5.26875 11.75 6.4375 C12.1625 7.613125 12.575 8.78875 13 10 C16.51400668 11.54086322 16.51400668 11.54086322 20 12 C19.67 13.32 19.34 14.64 19 16 C21.64 16.33 24.28 16.66 27 17 C27 17.99 27 18.98 27 20 C16.2470747 16.83859837 6.48132107 11.38674086 0 2 C0 1.34 0 0.68 0 0 Z " fill="#EFF3F3" transform="translate(15,80)"/>
<path d="M0 0 C0.93065133 2.60582371 1.14917407 3.64198224 0.0625 6.25 C-0.288125 6.8275 -0.63875 7.405 -1 8 C-0.34 8.33 0.32 8.66 1 9 C2.32 6.69 3.64 4.38 5 2 C6.32 2 7.64 2 9 2 C9 7.28 9 12.56 9 18 C8.67 18 8.34 18 8 18 C7.67 13.38 7.34 8.76 7 4 C6.01 5.98 5.02 7.96 4 10 C0.69858821 15.75215305 0.69858821 15.75215305 -2.24609375 16.796875 C-4.4375 16.75 -4.4375 16.75 -8 16 C-8.33 14.35 -8.66 12.7 -9 11 C-8.01 11 -7.02 11 -6 11 C-6.20625 10.38125 -6.4125 9.7625 -6.625 9.125 C-6.810625 8.073125 -6.810625 8.073125 -7 7 C-6.34 6.34 -5.68 5.68 -5 5 C-5 5.66 -5 6.32 -5 7 C-4.34 7 -3.68 7 -3 7 C-2.690625 6.030625 -2.38125 5.06125 -2.0625 4.0625 C-1 1 -1 1 0 0 Z " fill="#0B2284" transform="translate(97,68)"/>
<path d="M0 0 C2.31 0 4.62 0 7 0 C6.67 0.66 6.34 1.32 6 2 C4.35 1.67 2.7 1.34 1 1 C1 11.89 1 22.78 1 34 C2.65 34 4.3 34 6 34 C5.505 32.515 5.505 32.515 5 31 C4.93152181 29.33461039 4.91517883 27.6666474 4.9375 26 C4.94652344 25.13375 4.95554687 24.2675 4.96484375 23.375 C4.97644531 22.59125 4.98804688 21.8075 5 21 C5 20.01 5 19.02 5 18 C4.34 17.67 3.68 17.34 3 17 C3 18.65 3 20.3 3 22 C2.67 22 2.34 22 2 22 C2 19.36 2 16.72 2 14 C2.33 14.66 2.66 15.32 3 16 C7.455 15.505 7.455 15.505 12 15 C11.01 15.33 10.02 15.66 9 16 C9.66868314 19.11332248 9.66868314 19.11332248 12.0625 20.1875 C12.701875 20.455625 13.34125 20.72375 14 21 C11.69 21 9.38 21 7 21 C7 25.62 7 30.24 7 35 C4.69 35 2.38 35 0 35 C0 23.45 0 11.9 0 0 Z " fill="#071969" transform="translate(30,50)"/>
<path d="M0 0 C3.05566461 2.96306871 5.97135828 6.01720161 8.8125 9.1875 C9.41707031 9.86167969 10.02164063 10.53585938 10.64453125 11.23046875 C12 13 12 13 12 15 C8.47911273 15.66154458 5.50374684 15.82384089 2 15 C-1.52943736 12.05449591 -4.27345271 8.68808329 -7 5 C-6.01 4.67 -5.02 4.34 -4 4 C-1.95880212 5.61594832 0.04072937 7.2856382 2 9 C2.99 9.33 3.98 9.66 5 10 C4.6390625 9.44570312 4.278125 8.89140625 3.90625 8.3203125 C3.4421875 7.59585938 2.978125 6.87140625 2.5 6.125 C2.0359375 5.40570313 1.571875 4.68640625 1.09375 3.9453125 C0 2 0 2 0 0 Z " fill="#16266D" transform="translate(53,71)"/>
<path d="M0 0 C3.3 0 6.6 0 10 0 C10 0.66 10 1.32 10 2 C8.35 2 6.7 2 5 2 C5 2.66 5 3.32 5 4 C4.01 4.66 3.02 5.32 2 6 C1.48853802 8.90613434 1.48853802 8.90613434 1.48828125 12.3203125 C1.45283203 13.57714844 1.41738281 14.83398438 1.38085938 16.12890625 C1.35830078 17.44761719 1.33574219 18.76632813 1.3125 20.125 C1.27933471 21.46487759 1.24484578 22.80472311 1.20898438 24.14453125 C1.12626673 27.4296033 1.05719307 30.71440032 1 34 C2.98 34 4.96 34 7 34 C7 28.39 7 22.78 7 17 C7.33 17 7.66 17 8 17 C8 23.27 8 29.54 8 36 C5.36 36 2.72 36 0 36 C0 24.12 0 12.24 0 0 Z " fill="#0C195C" transform="translate(71,50)"/>
<path d="M0 0 C8.58637526 4.04064718 15.50129615 10.02043688 19 19 C19.53082567 22.41928246 19.68066906 25.5966547 19 29 C18.34 29.66 17.68 30.32 17 31 C16.93683594 30.26136719 16.87367188 29.52273437 16.80859375 28.76171875 C15.71337797 19.68872068 12.7975597 12.17797956 5.76171875 6.05078125 C4.37260951 5.03177216 2.95531268 4.04922272 1.50390625 3.12109375 C1.00761719 2.75113281 0.51132813 2.38117187 0 2 C0 1.34 0 0.68 0 0 Z " fill="#2F3269" transform="translate(154,41)"/>
<path d="M0 0 C10.47666305 2.29658225 20.86338378 6.4199579 30.0234375 11.96484375 C29.6934375 12.95484375 29.3634375 13.94484375 29.0234375 14.96484375 C28.3634375 14.55234375 27.7034375 14.13984375 27.0234375 13.71484375 C14.78846932 6.57777898 1.84916534 3.48904302 -11.9765625 0.96484375 C-7.68122775 -1.89871275 -4.95071324 -0.85107767 0 0 Z " fill="#3F446A" transform="translate(123.9765625,28.03515625)"/>
<path d="M0 0 C2.08304538 -0.05418326 4.16649768 -0.09287551 6.25 -0.125 C7.99023438 -0.15980469 7.99023438 -0.15980469 9.765625 -0.1953125 C12.82786046 -0.0103949 14.44202751 0.39176977 17 2 C16.67 2.99 16.34 3.98 16 5 C16.99 5 17.98 5 19 5 C19.05406122 6.93719378 19.09282025 8.87481921 19.125 10.8125 C19.14820313 11.89144531 19.17140625 12.97039062 19.1953125 14.08203125 C19 17 19 17 17 20 C16.34 20 15.68 20 15 20 C15 20.66 15 21.32 15 22 C13.68 21.67 12.36 21.34 11 21 C11.825 20.360625 12.65 19.72125 13.5 19.0625 C16.43844324 15.46290703 16.77355031 13.67390699 16.46484375 9.15625 C16.06700081 6.74361035 16.06700081 6.74361035 14.1875 4 C9.6313899 1.14126425 5.29054748 1.10191948 0 1 C0 0.67 0 0.34 0 0 Z " fill="#DA2C2E" transform="translate(127,56)"/>
<path d="M0 0 C0.33 0.66 0.66 1.32 1 2 C2.32 1.67 3.64 1.34 5 1 C4.67 3.97 4.34 6.94 4 10 C2 10 2 10 0.375 8.5 C-0.07875 8.005 -0.5325 7.51 -1 7 C-1 8.32 -1 9.64 -1 11 C-4.21428571 14 -4.21428571 14 -7 14 C-5.23570801 9.02790438 -2.6060834 4.56561939 0 0 Z " fill="#11277E" transform="translate(107,50)"/>
<path d="M0 0 C-5.35943425 3.04343931 -11.51214666 3.59170411 -17.5 4.6875 C-19.35431641 5.04424805 -19.35431641 5.04424805 -21.24609375 5.40820312 C-22.43332031 5.62798828 -23.62054688 5.84777344 -24.84375 6.07421875 C-25.92849609 6.27619873 -27.01324219 6.47817871 -28.13085938 6.6862793 C-30.81201203 6.97944481 -32.4791211 6.87064817 -35 6 C-34.34 6 -33.68 6 -33 6 C-33 5.34 -33 4.68 -33 4 C-32.10075806 3.87939209 -32.10075806 3.87939209 -31.18334961 3.75634766 C-28.43398653 3.38453257 -25.68576722 3.00482696 -22.9375 2.625 C-21.52307617 2.43550781 -21.52307617 2.43550781 -20.08007812 2.2421875 C-15.96824528 1.66910975 -11.97817395 1.0827253 -8 -0.125 C-4.82847915 -1.05002691 -3.12480588 -0.94691087 0 0 Z " fill="#505479" transform="translate(134,104)"/>
<path d="M0 0 C-0.33 0.99 -0.66 1.98 -1 3 C-3.28591025 4.04980354 -5.43917134 4.89798062 -7.8125 5.6875 C-9.67841797 6.34298828 -9.67841797 6.34298828 -11.58203125 7.01171875 C-15 8 -15 8 -19 8 C-19 7.01 -19 6.02 -19 5 C-15.51182612 2.309123 -13.29326856 1.89528613 -9 2 C-2.75 0 -2.75 0 0 0 Z " fill="#EFF4F4" transform="translate(144,96)"/>
<path d="M0 0 C-0.66 1.65 -1.32 3.3 -2 5 C-2.763125 4.979375 -3.52625 4.95875 -4.3125 4.9375 C-7.10185786 4.87057159 -7.10185786 4.87057159 -10 6 C-11.66666667 6 -13.33333333 6 -15 6 C-15.33 5.67 -15.66 5.34 -16 5 C-16.99 5.495 -16.99 5.495 -18 6 C-18 5.34 -18 4.68 -18 4 C-18.99 3.67 -19.98 3.34 -21 3 C-17.87735751 2.30147903 -14.75159876 1.6180743 -11.625 0.9375 C-10.73554687 0.73833984 -9.84609375 0.53917969 -8.9296875 0.33398438 C-8.07890625 0.15029297 -7.228125 -0.03339844 -6.3515625 -0.22265625 C-5.56604004 -0.39547119 -4.78051758 -0.56828613 -3.97119141 -0.74633789 C-2 -1 -2 -1 0 0 Z " fill="#EEF1F5" transform="translate(136,105)"/>
<path d="M0 0 C3.29129526 2.57579629 3.49607243 4.96857944 4 9 C4.33 9.99 4.66 10.98 5 12 C4.01 12.495 4.01 12.495 3 13 C1.4375 10.6875 1.4375 10.6875 0 8 C0.33 7.01 0.66 6.02 1 5 C0.60602665 2.36195411 0.60602665 2.36195411 0 0 Z M-2 8 C-1.01 8.495 -1.01 8.495 0 9 C0 9.66 0 10.32 0 11 C0.66 11.33 1.32 11.66 2 12 C2 13.65 2 15.3 2 17 C3.98 17 5.96 17 8 17 C8.33 16.34 8.66 15.68 9 15 C9 16.32 9 17.64 9 19 C6.36 19 3.72 19 1 19 C0.49384702 17.73160474 -0.00469099 16.46016898 -0.5 15.1875 C-0.7784375 14.47980469 -1.056875 13.77210937 -1.34375 13.04296875 C-2 11 -2 11 -2 8 Z " fill="#102269" transform="translate(87,67)"/>
<path d="M0 0 C0.66 0.33 1.32 0.66 2 1 C1.67 1.99 1.34 2.98 1 4 C1.99 4.66 2.98 5.32 4 6 C3.67 6.33 3.34 6.66 3 7 C2.83989519 9.73701178 2.74053172 12.4516759 2.68359375 15.19140625 C2.66281265 16.01124496 2.64203156 16.83108368 2.62062073 17.67576599 C2.55503506 20.30458901 2.49619874 22.93351504 2.4375 25.5625 C2.39432333 27.34050561 2.35070933 29.11850065 2.30664062 30.89648438 C2.19934457 35.26421634 2.09810296 39.63205227 2 44 C1.67 44 1.34 44 1 44 C0.97494385 42.93040039 0.9498877 41.86080078 0.92407227 40.75878906 C0.82980472 36.78536273 0.72963142 32.81210332 0.62768555 28.83886719 C0.58440984 27.12015695 0.54272959 25.40140576 0.50268555 23.68261719 C0.44480435 21.210161 0.38116164 18.73790953 0.31640625 16.265625 C0.29969376 15.49881409 0.28298126 14.73200317 0.26576233 13.94195557 C0.16987135 10.47826016 -0.07915862 7.33633749 -1 4 C-2.32 4.33 -3.64 4.66 -5 5 C-3.35 3.35 -1.7 1.7 0 0 Z " fill="#DFE4F7" transform="translate(27,42)"/>
<path d="M0 0 C0.33 0 0.66 0 1 0 C1 3.63 1 7.26 1 11 C-1.97 12.32 -4.94 13.64 -8 15 C-6.53025751 9.26800429 -3.55513098 4.66416601 0 0 Z " fill="#E5EDF5" transform="translate(104,71)"/>
<path d="M0 0 C2 2 2 2 2.13525391 4.06298828 C2.08288574 4.89040527 2.03051758 5.71782227 1.9765625 6.5703125 C1.925 7.46621094 1.8734375 8.36210938 1.8203125 9.28515625 C1.75585938 10.22230469 1.69140625 11.15945312 1.625 12.125 C1.56828125 13.06988281 1.5115625 14.01476562 1.453125 14.98828125 C1.31142903 17.32626481 1.16000217 19.66320944 1 22 C-7.49624785 22.89073566 -15.51118727 22.99418527 -24 22 C-24 21.67 -24 21.34 -24 21 C-20.7 21 -17.4 21 -14 21 C-14.33 20.01 -14.66 19.02 -15 18 C-14.34 18 -13.68 18 -13 18 C-13 18.66 -13 19.32 -13 20 C-8.71 20.33 -4.42 20.66 0 21 C0 14.07 0 7.14 0 0 Z " fill="#B4BCDA" transform="translate(79,65)"/>
<path d="M0 0 C0.99 0.33 1.98 0.66 3 1 C3 8.26 3 15.52 3 23 C0 20 0 20 -0.34057617 17.82348633 C-0.32486572 17.00130615 -0.30915527 16.17912598 -0.29296875 15.33203125 C-0.28330078 14.43935547 -0.27363281 13.54667969 -0.26367188 12.62695312 C-0.23853516 11.69818359 -0.21339844 10.76941406 -0.1875 9.8125 C-0.17396484 8.87212891 -0.16042969 7.93175781 -0.14648438 6.96289062 C-0.11113096 4.64134962 -0.06178674 2.32096347 0 0 Z " fill="#E42128" transform="translate(124,56)"/>
<path d="M0 0 C1.32 0.99 2.64 1.98 4 3 C3.34 3.66 2.68 4.32 2 5 C2 6.32 2 7.64 2 9 C2.66 9.33 3.32 9.66 4 10 C4 11.65 4 13.3 4 15 C0.01930733 12.12505529 -2.43571997 9.17882671 -5 5 C-3.35 3.35 -1.7 1.7 0 0 Z " fill="#DFE4EE" transform="translate(56,63)"/>
<path d="M0 0 C0 1.65 0 3.3 0 5 C-1.32 5 -2.64 5 -4 5 C-4.144375 5.5775 -4.28875 6.155 -4.4375 6.75 C-4.95833333 8.83333333 -5.47916667 10.91666667 -6 13 C-8.31 12.67 -10.62 12.34 -13 12 C-3.24783862 0 -3.24783862 0 0 0 Z " fill="#EDEEF3" transform="translate(70,51)"/>
<path d="M0 0 C2.96141448 1.09682018 4.10511128 2.13696318 6.0625 4.6875 C9.16533535 8.65873896 13.30283387 10.9180761 17.57421875 13.484375 C20 15 20 15 22 17 C13.80984252 16.0714647 7.75028521 11.26335555 2.375 5.1875 C0 2 0 2 0 0 Z " fill="#3A3C69" transform="translate(13,81)"/>
<path d="M0 0 C-1.29775308 3.89325923 -2.62890501 6.56532028 -6 9 C-9.6985004 8.85205998 -11.35805573 8.64194427 -14 6 C-12.04414675 4.99515796 -10.08523763 3.99626195 -8.125 3 C-6.48917969 2.1646875 -6.48917969 2.1646875 -4.8203125 1.3125 C-2 0 -2 0 0 0 Z " fill="#EBF0F4" transform="translate(155,95)"/>
<path d="M0 0 C0.33 0 0.66 0 1 0 C1 1.65 1 3.3 1 5 C1.66 5 2.32 5 3 5 C3 3.35 3 1.7 3 0 C3.33 0 3.66 0 4 0 C4.12117187 0.88042969 4.24234375 1.76085937 4.3671875 2.66796875 C4.53476563 3.82941406 4.70234375 4.99085937 4.875 6.1875 C5.03742187 7.33605469 5.19984375 8.48460938 5.3671875 9.66796875 C5.94060245 12.68724625 6.74759043 15.20575848 8 18 C6.140625 17.75390625 6.140625 17.75390625 4 17 C0.26262831 11.72846031 -0.45692867 6.28276919 0 0 Z " fill="#424A85" transform="translate(7,64)"/>
<path d="M0 0 C1.6415049 3.2830098 0.51888624 6.42545033 0 10 C0.66 10.33 1.32 10.66 2 11 C2 11.66 2 12.32 2 13 C1.01 13.33 0.02 13.66 -1 14 C-1.3403125 13.071875 -1.3403125 13.071875 -1.6875 12.125 C-3.37929835 9.38589791 -4.99244161 8.94975528 -8 8 C-7.67 6.35 -7.34 4.7 -7 3 C-5.02 3 -3.04 3 -1 3 C-0.67 2.01 -0.34 1.02 0 0 Z " fill="#14287B" transform="translate(46,61)"/>
<path d="M0 0 C8.03501094 -0.78774617 8.03501094 -0.78774617 12.0625 2.5 C12.701875 3.325 13.34125 4.15 14 5 C12.75 6.5625 12.75 6.5625 11 8 C8.8125 7.6875 8.8125 7.6875 7 7 C7 6.34 7 5.68 7 5 C3.04 5 -0.92 5 -5 5 C-5 4.67 -5 4.34 -5 4 C-1.04 3.34 2.92 2.68 7 2 C4.69 1.67 2.38 1.34 0 1 C0 0.67 0 0.34 0 0 Z " fill="#E60C0F" transform="translate(133,51)"/>
<path d="M0 0 C0 0.33 0 0.66 0 1 C-1.09957031 1.18175781 -2.19914062 1.36351562 -3.33203125 1.55078125 C-11.69179776 2.96189999 -19.87471761 4.52556195 -28 7 C-28 6.34 -28 5.68 -28 5 C-27.236875 4.71125 -26.47375 4.4225 -25.6875 4.125 C-22.84970692 3.03730987 -22.84970692 3.03730987 -20 1 C-13.11098448 -0.93118304 -7.02391846 -1.15146204 0 0 Z " fill="#E6EBF7" transform="translate(70,26)"/>
<path d="M0 0 C3.875 2.625 3.875 2.625 5 6 C5.14220279 7.66267874 5.22020567 9.3315173 5.25 11 C5.27578125 11.86625 5.3015625 12.7325 5.328125 13.625 C4.94072585 16.42903194 4.17141522 17.26286782 2 19 C0.7490436 15.24713079 1 11.94020864 1 8 C0.67 7.01 0.34 6.02 0 5 C-0.03874921 3.33378384 -0.0450286 1.66605828 0 0 Z " fill="#E22F32" transform="translate(147,56)"/>
<path d="M0 0 C-3.96 3.465 -3.96 3.465 -8 7 C-8.66 6.67 -9.32 6.34 -10 6 C-10 4.68 -10 3.36 -10 2 C-13.96 2 -17.92 2 -22 2 C-22 1.67 -22 1.34 -22 1 C-19.85473901 0.80606125 -17.70876323 0.62001324 -15.5625 0.4375 C-13.77005859 0.28087891 -13.77005859 0.28087891 -11.94140625 0.12109375 C-10.97074219 0.08113281 -10.00007812 0.04117188 -9 0 C-8.67 0.33 -8.34 0.66 -8 1 C-7.236875 0.649375 -6.47375 0.29875 -5.6875 -0.0625 C-3 -1 -3 -1 0 0 Z " fill="#D8161A" transform="translate(149,78)"/>
<path d="M0 0 C1.32 0 2.64 0 4 0 C4 5.28 4 10.56 4 16 C3.67 16 3.34 16 3 16 C2.67 11.38 2.34 6.76 2 2 C-0.31 5.96 -2.62 9.92 -5 14 C-7 10 -7 10 -6.625 7.75 C-6.41875 7.1725 -6.2125 6.595 -6 6 C-5.34 6.33 -4.68 6.66 -4 7 C-2.68 4.69 -1.36 2.38 0 0 Z " fill="#334080" transform="translate(102,70)"/>
<path d="M0 0 C0.33 0 0.66 0 1 0 C1.0825 1.27875 1.165 2.5575 1.25 3.875 C1.45869931 6.05333418 1.45869931 6.05333418 2 8 C3.92064793 9.5899433 3.92064793 9.5899433 6 10 C6.33 9.34 6.66 8.68 7 8 C7.66 8.33 8.32 8.66 9 9 C8.49396008 11.16874252 8.00016187 12.99967627 7 15 C4.69 15 2.38 15 0 15 C0 10.05 0 5.1 0 0 Z " fill="#E5EAF6" transform="translate(38,49)"/>
<path d="M0 0 C0.66 0 1.32 0 2 0 C1.71253906 0.55816406 1.42507812 1.11632813 1.12890625 1.69140625 C-0.03663165 4.07491109 -1.06607807 6.47864894 -2.0625 8.9375 C-2.40410156 9.77152344 -2.74570313 10.60554688 -3.09765625 11.46484375 C-3.98862041 13.96802878 -4.54632472 16.38552083 -5 19 C-5.66 19 -6.32 19 -7 19 C-7.73994125 11.896564 -6.43121917 7.59944968 -2 2 C-1.34 1.34 -0.68 0.68 0 0 Z " fill="#2C316B" transform="translate(15,50)"/>
<path d="M0 0 C5.09032443 0.45449325 9.3036932 1.32305131 14.03515625 3.234375 C16.96899085 4.37757894 19.96240058 5.17731682 23 6 C21.46875 7.13671875 21.46875 7.13671875 19 8 C16.3496667 7.40484772 14.03053767 6.73381226 11.5 5.8125 C10.83613281 5.59013672 10.17226563 5.36777344 9.48828125 5.13867188 C5.87229373 3.87921115 2.90354708 2.51097566 0 0 Z " fill="#535682" transform="translate(33,98)"/>
<path d="M0 0 C-1.20842856 4.43090471 -2.51668565 6.98112756 -6 10 C-7.625 8.3125 -7.625 8.3125 -9 6 C-8.4375 3.3125 -8.4375 3.3125 -7 1 C-4.50523949 -0.04618989 -2.73143089 0 0 0 Z " fill="#EFF2F6" transform="translate(107,50)"/>
<path d="M0 0 C0.33 0 0.66 0 1 0 C1.33 2.31 1.66 4.62 2 7 C2.33 5.02 2.66 3.04 3 1 C3.33 1 3.66 1 4 1 C4.48736475 7.70126536 3.07708804 12.06561592 0 18 C-0.99 17.67 -1.98 17.34 -3 17 C-2.68289062 16.30519531 -2.36578125 15.61039063 -2.0390625 14.89453125 C-0.90598948 11.73811356 -0.59519989 9.02719833 -0.375 5.6875 C-0.30023438 4.61886719 -0.22546875 3.55023438 -0.1484375 2.44921875 C-0.09945312 1.64097656 -0.05046875 0.83273438 0 0 Z " fill="#485183" transform="translate(170,63)"/>
<path d="M0 0 C0.99 0.33 1.98 0.66 3 1 C3 1.99 3 2.98 3 4 C3.66 4 4.32 4 5 4 C5 3.01 5 2.02 5 1 C5.99 0.67 6.98 0.34 8 0 C8.6875 1.625 8.6875 1.625 9 4 C7.5625 7.25 7.5625 7.25 6 10 C5.34 10 4.68 10 4 10 C1.6791945 6.7508723 0.56302958 3.94120709 0 0 Z " fill="#E2E6F4" transform="translate(88,65)"/>
<path d="M0 0 C0 1.32 0 2.64 0 4 C-5.41538462 7.07692308 -5.41538462 7.07692308 -8.375 6.6875 C-8.91125 6.460625 -9.4475 6.23375 -10 6 C-10 4.68 -10 3.36 -10 2 C-6.49223216 0.39644899 -3.85645121 -0.22036864 0 0 Z " fill="#EDF2F3" transform="translate(36,32)"/>
<path d="M0 0 C3.25 0.25 3.25 0.25 6 1 C5.67 1.66 5.34 2.32 5 3 C7.475 3.99 7.475 3.99 10 5 C10 5.66 10 6.32 10 7 C5.38 6.01 0.76 5.02 -4 4 C-2.68 2.68 -1.36 1.36 0 0 Z " fill="#EDF1F6" transform="translate(46,97)"/>
<path d="M0 0 C0 3 0 3 -3 8 C-11.25 7.67 -19.5 7.34 -28 7 C-28 6.67 -28 6.34 -28 6 C-27.36497559 5.99589111 -26.72995117 5.99178223 -26.07568359 5.98754883 C-23.17453523 5.95447902 -20.27544986 5.88382254 -17.375 5.8125 C-15.87646484 5.80379883 -15.87646484 5.80379883 -14.34765625 5.79492188 C-7.81549237 5.62132875 -7.81549237 5.62132875 -2.2890625 2.44921875 C-1.15597656 1.23685547 -1.15597656 1.23685547 0 0 Z " fill="#FEB4B4" transform="translate(146,80)"/>
<path d="M0 0 C0.66 0 1.32 0 2 0 C2.05449838 1.72880982 2.09301688 3.45812712 2.125 5.1875 C2.14820313 6.15042969 2.17140625 7.11335938 2.1953125 8.10546875 C1.98795695 11.17847805 1.42039342 13.2743802 0 16 C-2.625 17.3125 -2.625 17.3125 -5 18 C-4.360625 16.88625 -3.72125 15.7725 -3.0625 14.625 C-0.64256752 9.85354302 -0.2167031 5.28755567 0 0 Z " fill="#FDD6D0" transform="translate(152,62)"/>
<path d="M0 0 C3.08893817 2.80812561 4.81885416 5.28977018 5.265625 9.5078125 C5.26046875 10.37148438 5.2553125 11.23515625 5.25 12.125 C5.25773438 13.42824219 5.25773438 13.42824219 5.265625 14.7578125 C5 17 5 17 3 19 C1.93034128 12.67551301 0.86670454 6.35583327 0 0 Z " fill="#272F70" transform="translate(168,53)"/>
<path d="M0 0 C3.27066566 -0.08706892 6.54103365 -0.14041241 9.8125 -0.1875 C10.74126953 -0.21263672 11.67003906 -0.23777344 12.62695312 -0.26367188 C13.9659668 -0.27817383 13.9659668 -0.27817383 15.33203125 -0.29296875 C16.56530151 -0.31653442 16.56530151 -0.31653442 17.82348633 -0.34057617 C20.47502434 0.07433079 21.33263592 0.95529751 23 3 C20.10388456 2.85865273 17.2081919 2.7120847 14.3125 2.5625 C13.49587891 2.52318359 12.67925781 2.48386719 11.83789062 2.44335938 C7.80344189 2.23101997 3.94252691 1.95552078 0 1 C0 0.67 0 0.34 0 0 Z " fill="#DFE7F2" transform="translate(94,24)"/>
<path d="M0 0 C0 0.33 0 0.66 0 1 C-6.6 2.32 -13.2 3.64 -20 5 C-20.33 4.34 -20.66 3.68 -21 3 C-18.62863429 2.2970379 -16.25432265 1.61253255 -13.875 0.9375 C-13.20984375 0.73833984 -12.5446875 0.53917969 -11.859375 0.33398438 C-7.54172062 -0.87241906 -4.35224278 -1.0778919 0 0 Z " fill="#4F5376" transform="translate(68,28)"/>
<path d="M0 0 C1.1446875 0.2475 1.1446875 0.2475 2.3125 0.5 C5.03596236 1.09145396 5.03596236 1.09145396 8 1 C7.67 1.99 7.34 2.98 7 4 C9.64 4.33 12.28 4.66 15 5 C15 5.99 15 6.98 15 8 C13.24521948 7.43120907 11.49630842 6.84429344 9.75 6.25 C8.77546875 5.92515625 7.8009375 5.6003125 6.796875 5.265625 C3.82193041 3.91942103 2.14495926 2.43095383 0 0 Z " fill="#D9DCEA" transform="translate(27,92)"/>
<path d="M0 0 C2.5 1.4375 2.5 1.4375 5 4 C5.62094466 7.07145838 5.67678723 9.93753779 5 13 C3.46875 14.77734375 3.46875 14.77734375 2 16 C1.67 15.01 1.34 14.02 1 13 C1.66 13 2.32 13 3 13 C2.814375 12.236875 2.62875 11.47375 2.4375 10.6875 C2 8 2 8 3 5 C2.34 5 1.68 5 1 5 C0.67 3.35 0.34 1.7 0 0 Z " fill="#FDD9D3" transform="translate(139,59)"/>
<path d="M0 0 C3.3 0.66 6.6 1.32 10 2 C5.5 5.375 5.5 5.375 1.25 5.1875 C0.05117188 5.14689453 0.05117188 5.14689453 -1.171875 5.10546875 C-1.77515625 5.07066406 -2.3784375 5.03585938 -3 5 C-2.34 4.67 -1.68 4.34 -1 4 C-0.67 2.68 -0.34 1.36 0 0 Z " fill="#E9EEF0" transform="translate(50,105)"/>
<path d="M0 0 C0 5.33333333 0 5.33333333 -1 8 C-4.5625 9.8125 -4.5625 9.8125 -8 11 C-6.52670958 5.99081256 -3.72484762 3.48192278 0 0 Z " fill="#DDE3F0" transform="translate(21,47)"/>
<path d="M0 0 C3.59634744 3.49359465 6.83451967 7.11098131 10 11 C8.02 11.99 8.02 11.99 6 13 C5.62875 11.948125 5.62875 11.948125 5.25 10.875 C4.03524952 7.84921039 4.03524952 7.84921039 1.875 4.8125 C0 2 0 2 0 0 Z " fill="#1F2E73" transform="translate(53,71)"/>
<path d="M0 0 C3.39417765 3.12621626 5.6062718 5.56541027 7 10 C0.27777778 7.55555556 0.27777778 7.55555556 -1 5 C-1 3 -1 3 0 0 Z " fill="#D9DCED" transform="translate(161,48)"/>
<path d="M0 0 C0.99 0 1.98 0 3 0 C1.60846256 4.42761914 -0.52071486 6.9556255 -4 10 C-4.66 10 -5.32 10 -6 10 C-4.34406255 6.41213553 -2.37162309 3.16216412 0 0 Z " fill="#303665" transform="translate(166,80)"/>
<path d="M0 0 C0.87454834 0.00523682 1.74909668 0.01047363 2.65014648 0.01586914 C3.59438477 0.0190918 4.53862305 0.02231445 5.51147461 0.02563477 C6.50469727 0.03401367 7.49791992 0.04239258 8.52124023 0.05102539 C9.51833008 0.05553711 10.51541992 0.06004883 11.54272461 0.06469727 C14.01478872 0.07652532 16.48673541 0.0930069 18.95874023 0.11352539 C18.95874023 0.44352539 18.95874023 0.77352539 18.95874023 1.11352539 C17.85014648 1.17411133 16.74155273 1.23469727 15.59936523 1.29711914 C14.13581204 1.3815549 12.67227098 1.46620138 11.20874023 1.55102539 C10.11432617 1.61 10.11432617 1.61 8.99780273 1.67016602 C4.86665977 1.88667273 4.86665977 1.88667273 0.84057617 2.75830078 C-0.09093262 2.93413696 -0.09093262 2.93413696 -1.04125977 3.11352539 C-1.70125977 2.45352539 -2.36125977 1.79352539 -3.04125977 1.11352539 C-2.04125977 0.11352539 -2.04125977 0.11352539 0 0 Z " fill="#FEF4F2" transform="translate(120.041259765625,86.886474609375)"/>
<path d="M0 0 C5.94 1.485 5.94 1.485 12 3 C8.24464902 5.50356732 7.13110586 4.9608592 2.8125 4.125 C1.72582031 3.92132812 0.63914062 3.71765625 -0.48046875 3.5078125 C-1.31191406 3.34023438 -2.14335938 3.17265625 -3 3 C-2.01 2.67 -1.02 2.34 0 2 C0 1.34 0 0.68 0 0 Z " fill="#E7EDF5" transform="translate(121,25)"/>
<path d="M0 0 C-2.72164676 2.72164676 -5.29514545 3.10572476 -9 4 C-10.32 4 -11.64 4 -13 4 C-13 3.01 -13 2.02 -13 1 C-8.61414671 0.29826347 -4.44209357 -0.10834375 0 0 Z " fill="#E6EBF7" transform="translate(138,100)"/>
<path d="M0 0 C2.5654594 2.5654594 2.54046087 4.47686668 3 8 C5.64 8 8.28 8 11 8 C11 8.33 11 8.66 11 9 C7.7 9.33 4.4 9.66 1 10 C-0.60725635 6.78548731 -0.05748185 3.56387464 0 0 Z " fill="#C7CEE5" transform="translate(85,78)"/>
<path d="M0 0 C0.33 0.66 0.66 1.32 1 2 C1.66 2.33 2.32 2.66 3 3 C1.9024777 5.99324263 1.32317108 6.84610901 -1.625 8.25 C-2.40875 8.4975 -3.1925 8.745 -4 9 C-2.94124926 5.59687262 -1.99097846 2.98646769 0 0 Z " fill="#DBE1EC" transform="translate(100,77)"/>
<path d="M0 0 C3.28817667 0.56692701 4.84731303 1.4559154 7 4 C7.99 5.485 7.99 5.485 9 7 C8.67 7.99 8.34 8.98 8 10 C6.66370254 8.52351062 5.33103329 7.0437367 4 5.5625 C3.2575 4.73878906 2.515 3.91507812 1.75 3.06640625 C0 1 0 1 0 0 Z " fill="#1D2D68" transform="translate(46,75)"/>
<path d="M0 0 C2 2 2 2 2.0625 4.5625 C2.041875 5.366875 2.02125 6.17125 2 7 C2.33 7.33 2.66 7.66 3 8 C3.04080783 9.99958364 3.04254356 12.00045254 3 14 C2.67 14 2.34 14 2 14 C1.34 11.03 0.68 8.06 0 5 C-0.99 5 -1.98 5 -3 5 C-3 4.34 -3 3.68 -3 3 C-2.34 3 -1.68 3 -1 3 C-0.67 2.01 -0.34 1.02 0 0 Z " fill="#EB0805" transform="translate(146,56)"/>
<path d="M0 0 C0.33 0 0.66 0 1 0 C1.25 3.3125 1.25 3.3125 1 7 C-0.875 8.9375 -0.875 8.9375 -3 10 C-3.66 10 -4.32 10 -5 10 C-3.66654496 6.40992874 -2.1056769 3.20429093 0 0 Z " fill="#2E3A7D" transform="translate(105,54)"/>
<path d="M0 0 C3.3 0 6.6 0 10 0 C9.34 1.32 8.68 2.64 8 4 C7.01 3.67 6.02 3.34 5 3 C4.67 3 4.34 3 4 3 C2.68 3 1.36 3 0 3 C0 2.01 0 1.02 0 0 Z " fill="#121C68" transform="translate(58,50)"/>
<path d="M0 0 C1.17949219 0.20367188 2.35898438 0.40734375 3.57421875 0.6171875 C4.47785156 0.78476562 5.38148437 0.95234375 6.3125 1.125 C5.6525 1.785 4.9925 2.445 4.3125 3.125 C1.0546875 2.8828125 1.0546875 2.8828125 -2.8125 2.25 C-4.09382813 2.04632812 -5.37515625 1.84265625 -6.6953125 1.6328125 C-7.68273437 1.46523438 -8.67015625 1.29765625 -9.6875 1.125 C-5.84419804 -1.43720131 -4.45559323 -0.79406612 0 0 Z " fill="#5A5F84" transform="translate(121.6875,27.875)"/>
<path d="M0 0 C2.16874252 0.50603992 3.99967627 0.99983813 6 2 C6 3.98 6 5.96 6 8 C1.125 3.375 1.125 3.375 0 0 Z " fill="#E0E7F4" transform="translate(15,80)"/>
<path d="M0 0 C2 3 2 3 1.75 4.97265625 C0.97213672 7.14013987 0.22746962 9.04701569 -1 11 C-4.1875 12.5 -4.1875 12.5 -7 13 C-6.21625 11.96875 -5.4325 10.9375 -4.625 9.875 C-2.35603148 6.71901262 -1.01464129 3.78184481 0 0 Z " fill="#D4DBED" transform="translate(172,74)"/>
<path d="M0 0 C0.6875 1.6875 0.6875 1.6875 1 4 C-0.25 6.6875 -0.25 6.6875 -2 9 C-2.99 9.33 -3.98 9.66 -5 10 C-5.66 9.67 -6.32 9.34 -7 9 C-6.34 7.68 -5.68 6.36 -5 5 C-5 5.66 -5 6.32 -5 7 C-4.34 7 -3.68 7 -3 7 C-2.690625 6.030625 -2.38125 5.06125 -2.0625 4.0625 C-1 1 -1 1 0 0 Z " fill="#2C3A81" transform="translate(97,68)"/>
<path d="M0 0 C2.35448165 2.55068845 2.98327924 3.71017358 3.1875 7.25 C3.125625 8.1575 3.06375 9.065 3 10 C0.61327331 7.03716687 -1.7353371 4.05729491 -4 1 C-2.68 0.67 -1.36 0.34 0 0 Z " fill="#FEDFDC" transform="translate(149,52)"/>
<path d="M0 0 C4 1.33333333 8 2.66666667 12 4 C10.296875 5.1171875 10.296875 5.1171875 8 6 C5.640625 5.3203125 5.640625 5.3203125 3.25 4.125 C2.45078125 3.73570313 1.6515625 3.34640625 0.828125 2.9453125 C-0.07679688 2.47738281 -0.07679688 2.47738281 -1 2 C-0.67 1.34 -0.34 0.68 0 0 Z " fill="#DCE2EC" transform="translate(141,32)"/>
<path d="M0 0 C0 0.33 0 0.66 0 1 C-4.62 1.66 -9.24 2.32 -14 3 C-14.33 2.34 -14.66 1.68 -15 1 C-9.675665 -1.32086397 -5.56157448 -0.91457003 0 0 Z " fill="#E1E4F1" transform="translate(70,26)"/>
<path d="M0 0 C4.55015893 1.51671964 6.50057264 5.16891053 9 9 C4.18579475 8.16677217 2.81953925 5.8377062 0 2 C0 1.34 0 0.68 0 0 Z " fill="#282F5F" transform="translate(13,81)"/>
<path d="M0 0 C2.79828356 0.38597015 3.8205884 0.80136573 5.75 2.9375 C7 5 7 5 7 7 C4.625 6.6875 4.625 6.6875 2 6 C0 3 0 3 0 0 Z " fill="#0A238D" transform="translate(51,74)"/>
<path d="M0 0 C0.33 0.66 0.66 1.32 1 2 C-3.97063121 2.91297308 -8.02936879 2.91297308 -13 2 C-13 1.67 -13 1.34 -13 1 C-8.61414671 0.29826347 -4.44209357 -0.10834375 0 0 Z " fill="#F8F8F2" transform="translate(60,24)"/>
<path d="M0 0 C0 0.66 0 1.32 0 2 C-1.98 2.99 -1.98 2.99 -4 4 C-3.67 4.99 -3.34 5.98 -3 7 C-7.75 6.25 -7.75 6.25 -10 4 C-8.71086513 3.32845067 -7.41859796 2.66291141 -6.125 2 C-5.40570313 1.62875 -4.68640625 1.2575 -3.9453125 0.875 C-2 0 -2 0 0 0 Z " fill="#D2D7E5" transform="translate(151,97)"/>
<path d="M0 0 C3.7910119 1.44950455 7.3874638 3.15172566 11 5 C10.01 5.66 9.02 6.32 8 7 C1.125 3.375 1.125 3.375 0 0 Z " fill="#E2E6F6" transform="translate(24,94)"/>
<path d="M0 0 C0.66 0.66 1.32 1.32 2 2 C-2.455 4.97 -2.455 4.97 -7 8 C-7.33 7.01 -7.66 6.02 -8 5 C-4.04 2.525 -4.04 2.525 0 0 Z " fill="#E9EEF9" transform="translate(156,88)"/>
<path d="M0 0 C2.97 0 5.94 0 9 0 C8.01 0.495 8.01 0.495 7 1 C5.86649466 3.01669827 5.86649466 3.01669827 5 5 C4.01 4.67 3.02 4.34 2 4 C2 3.01 2 2.02 2 1 C1.34 0.67 0.68 0.34 0 0 Z " fill="#E0E8EE" transform="translate(29,86)"/>
<path d="M0 0 C2.64 0.66 5.28 1.32 8 2 C8.33 3.32 8.66 4.64 9 6 C2.35384615 4.52307692 2.35384615 4.52307692 0.5625 1.875 C0.376875 1.25625 0.19125 0.6375 0 0 Z " fill="#E7EAF1" transform="translate(60,78)"/>
<path d="M0 0 C0.99 0.495 0.99 0.495 2 1 C2 2.32 2 3.64 2 5 C2.99 5 3.98 5 5 5 C5 5.99 5 6.98 5 8 C3.35 8 1.7 8 0 8 C0 5.36 0 2.72 0 0 Z " fill="#0D2180" transform="translate(107,76)"/>
<path d="M0 0 C-3.53411321 2.12046792 -6.94393835 2.53199289 -11 3 C-11.33 2.34 -11.66 1.68 -12 1 C-7.58774263 -0.47075246 -4.51718381 -1.36884358 0 0 Z " fill="#5C6088" transform="translate(134,104)"/>
<path d="M0 0 C0.66 0.33 1.32 0.66 2 1 C1.25 7.75 1.25 7.75 -1 10 C-2.15837626 5.94568308 -1.83691257 3.78187881 0 0 Z " fill="#EFF4F8" transform="translate(166,72)"/>
<path d="M0 0 C-0.33 3.3 -0.66 6.6 -1 10 C-1.66 10 -2.32 10 -3 10 C-3 7.03 -3 4.06 -3 1 C-1 0 -1 0 0 0 Z " fill="#1C286B" transform="translate(11,59)"/>
<path d="M0 0 C0 1.65 0 3.3 0 5 C-2.64 5.66 -5.28 6.32 -8 7 C-2.34042553 0 -2.34042553 0 0 0 Z " fill="#E2EBF6" transform="translate(70,51)"/>
<path d="M0 0 C1.27875 0.28875 2.5575 0.5775 3.875 0.875 C4.95394531 1.11863281 4.95394531 1.11863281 6.0546875 1.3671875 C8 2 8 2 10 4 C2.57142857 4.28571429 2.57142857 4.28571429 -1 2 C-0.67 1.34 -0.34 0.68 0 0 Z " fill="#E4EAF4" transform="translate(134,34)"/>
<path d="M0 0 C1.65 0 3.3 0 5 0 C5 3.27275026 4.70074844 5.846632 4 9 C2.47700477 6.06279492 1.19899698 3.0831351 0 0 Z " fill="#E6EDF4" transform="translate(170,55)"/>
<path d="M0 0 C0.66 0.33 1.32 0.66 2 1 C2 1.66 2 2.32 2 3 C3.65 3 5.3 3 7 3 C7 4.32 7 5.64 7 7 C3.88801935 5.50163895 0.9465385 3.80066242 -2 2 C-1.34 1.34 -0.68 0.68 0 0 Z " fill="#D6DAEB" transform="translate(153,37)"/>
<path d="M0 0 C1.65 1.65 3.3 3.3 5 5 C4.01 5.495 4.01 5.495 3 6 C2.67 6.66 2.34 7.32 2 8 C0.4375 6.25 0.4375 6.25 -1 4 C-0.6875 1.75 -0.6875 1.75 0 0 Z " fill="#DFE5F1" transform="translate(50,80)"/>
<path d="M0 0 C2.35953094 2.35953094 2.49141413 3.77895617 3 7 C1.68 7.33 0.36 7.66 -1 8 C-2.2077558 4.37673261 -1.54311128 3.35853631 0 0 Z " fill="#2E3B85" transform="translate(84,56)"/>
<path d="M0 0 C0 3.57575896 -1.08840607 5.05295935 -3 8 C-3.99 7.67 -4.98 7.34 -6 7 C-4.77065985 3.31197956 -3.06140622 2.27643027 0 0 Z " fill="#FBC9CB" transform="translate(146,80)"/>
<path d="M0 0 C2 1 2 1 2.6328125 2.84765625 C2.79523438 3.57855469 2.95765625 4.30945313 3.125 5.0625 C3.29257813 5.79597656 3.46015625 6.52945313 3.6328125 7.28515625 C3.75398438 7.85105469 3.87515625 8.41695312 4 9 C2.68 8.67 1.36 8.34 0 8 C0 5.36 0 2.72 0 0 Z " fill="#D3DFF4" transform="translate(80,67)"/>
<path d="M0 0 C0.99 0.33 1.98 0.66 3 1 C1.35 2.98 -0.3 4.96 -2 7 C-2.66 6.67 -3.32 6.34 -4 6 C-4 5.34 -4 4.68 -4 4 C-3.34 4 -2.68 4 -2 4 C-2 3.34 -2 2.68 -2 2 C-1.34 2 -0.68 2 0 2 C0 1.34 0 0.68 0 0 Z " fill="#E5EEF6" transform="translate(55,48)"/>
<path d="M0 0 C4.455 2.97 4.455 2.97 9 6 C7.68 6.33 6.36 6.66 5 7 C4.67 6.01 4.34 5.02 4 4 C2.35 4 0.7 4 -1 4 C-0.67 2.68 -0.34 1.36 0 0 Z " fill="#D9DCEF" transform="translate(150,40)"/>
<path d="M0 0 C1.98 0 3.96 0 6 0 C6 1.32 6 2.64 6 4 C3.03 3.505 3.03 3.505 0 3 C0 2.01 0 1.02 0 0 Z " fill="#F1F6F2" transform="translate(31,100)"/>
<path d="M0 0 C1.65 0 3.3 0 5 0 C4.67 1.32 4.34 2.64 4 4 C2.68 4.33 1.36 4.66 0 5 C0 3.35 0 1.7 0 0 Z " fill="#0D2284" transform="translate(31,51)"/>
<path d="M0 0 C0.99 0.33 1.98 0.66 3 1 C1.35 2.65 -0.3 4.3 -2 6 C-2.66 5.34 -3.32 4.68 -4 4 C-2.68 2.68 -1.36 1.36 0 0 Z " fill="#494E7C" transform="translate(19,45)"/>
<path d="M0 0 C3.73639216 1.24546405 4.18756513 2.63404953 6 6 C3 6 3 6 1.3125 4.6875 C0 3 0 3 0 0 Z " fill="#DCE1F1" transform="translate(42,72)"/>
<path d="M0 0 C2.31 0.33 4.62 0.66 7 1 C6.34 2.32 5.68 3.64 5 5 C3.35 3.35 1.7 1.7 0 0 Z " fill="#DCDFEF" transform="translate(160,44)"/>
<path d="M0 0 C1.62463842 -0.05395478 3.24978541 -0.09277195 4.875 -0.125 C5.77992188 -0.14820313 6.68484375 -0.17140625 7.6171875 -0.1953125 C10 0 10 0 12 2 C8.70303895 3.09898702 7.59505097 2.87124444 4.3125 2.0625 C3.50425781 1.86785156 2.69601563 1.67320313 1.86328125 1.47265625 C0.94095703 1.23869141 0.94095703 1.23869141 0 1 C0 0.67 0 0.34 0 0 Z " fill="#EEF3F8" transform="translate(136,38)"/>
<path d="M0 0 C2.31 0.33 4.62 0.66 7 1 C7 1.99 7 2.98 7 4 C4.69 3.34 2.38 2.68 0 2 C0 1.34 0 0.68 0 0 Z " fill="#E4EBF5" transform="translate(35,96)"/>
<path d="M0 0 C0.33 0.66 0.66 1.32 1 2 C-0.32 3.32 -1.64 4.64 -3 6 C-3.99 5.34 -4.98 4.68 -6 4 C-4.02 2.68 -2.04 1.36 0 0 Z " fill="#DEE5F0" transform="translate(161,90)"/>
<path d="M0 0 C1.98 0.495 1.98 0.495 4 1 C4 2.32 4 3.64 4 5 C1.525 4.01 1.525 4.01 -1 3 C-0.67 2.01 -0.34 1.02 0 0 Z " fill="#F8C8C7" transform="translate(141,48)"/>
</svg>
